<?xml version="1.0" encoding="utf-8"?>
<!-- Generator: Adobe Illustrator 25.0.0, SVG Export Plug-In . SVG Version: 6.00 Build 0)  -->
<svg version="1.1" id="Livello_1" xmlns="http://www.w3.org/2000/svg" xmlns:xlink="http://www.w3.org/1999/xlink" x="0px" y="0px"
	 viewBox="0 0 2935.15 600" style="enable-background:new 0 0 2935.15 600;" xml:space="preserve">
<style type="text/css">
	.st0{fill:#FFFFFF;}
</style>
<g>
	<path class="st0" d="M397.23,552.75h-87.2c-1.9,0-5.05-1.26-5.69-3.79l-99.83-281.81l-98.57,281.81c-0.63,2.53-3.79,3.79-6.32,3.79
		H13.05c-5.69,0-8.21-3.79-6.32-7.58L198.19,51.05c1.9-5.06,10.74-5.06,12.64,0l192.09,494.12
		C404.81,548.96,401.65,552.75,397.23,552.75z"/>
	<path class="st0" d="M696.09,300c80.25,27.17,77.09,105.52,77.09,105.52c0,140.91-144.06,147.22-178.19,147.22H519.8V460.5h75.19
		c31.59,0,81.51-8.85,81.51-57.5c0-59.4-81.51-55.6-81.51-55.6h-75.82h-96.04V52.95c0-2.53,3.16-5.69,6.95-5.69h164.92
		c0,0,171.24-3.79,171.24,144.7C766.22,250.72,734.63,284.21,696.09,300z M594.99,137.62h-75.82v115.63h75.82
		c0,0,74.56,0,74.56-55.6C669.55,136.98,594.99,137.62,594.99,137.62z"/>
	<path class="st0" d="M1104.89,405.53c0,94.78-75.82,147.22-156.7,147.22c0,0,0,0-0.63,0v-90.99c0.63,0,0.63,0,0.63,0
		c33.49,0,63.19-22.75,63.19-56.24c0-37.28-34.75-60.03-63.19-61.29c-4.42,0-38.54,0-75.19-17.06
		c-52.44-24.01-82.14-68.87-82.14-127.64c0-94.78,76.46-152.28,157.33-152.28c86.57,0,153.54,58.13,154.81,144.06
		c0.63,1.9-2.53,5.06-6.95,5.06h-78.98c-3.79,0-6.95-3.16-6.95-5.06c-1.26-36.02-29.07-53.08-61.92-53.08
		c-34.75,0-63.19,20.85-63.19,61.29c0,36.65,30.96,55.6,63.19,55.6c3.16,0,38.54,0,74.56,17.06
		C1075.83,296.85,1104.89,346.13,1104.89,405.53z"/>
	<path class="st0" d="M1120.68,128.14V52.95c0-2.53,3.16-5.69,6.95-5.69h290.03c4.42,0,6.95,3.16,6.95,5.69v75.19
		c0,3.16-2.53,5.69-6.95,5.69h-290.03C1123.84,133.82,1120.68,131.3,1120.68,128.14z M1320.98,230.5v316.56
		c0,2.53-3.16,5.69-7.58,5.69h-81.51c-4.42,0-6.95-3.16-6.95-5.69V230.5H1320.98z"/>
	<path class="st0" d="M1779.07,552.75h-90.36c-1.9,0-5.69-1.9-6.32-3.79l-92.25-200.3h-54.34v198.4c0,2.53-3.16,5.69-6.95,5.69
		h-82.77c-3.16,0-6.32-3.16-6.32-5.69V255.77h96.04h73.93c20.85,0,74.56-2.53,74.56-58.13c0-55.6-59.4-58.76-74.56-58.76h-73.93
		h-96.04V52.95c0-2.53,3.16-5.69,6.32-5.69h163.65c28.43,0,170.6,1.26,170.6,150.38c0,77.09-42.33,117.53-92.88,135.85
		c31.59,71.4,65.71,140.91,97.31,211.04C1786.65,548.96,1784.12,552.75,1779.07,552.75z"/>
	<path class="st0" d="M2194.2,552.75H2107c-1.9,0-5.05-1.26-5.69-3.79l-99.83-281.81l-98.57,281.81c-0.63,2.53-3.79,3.79-6.32,3.79
		h-86.57c-5.69,0-8.21-3.79-6.32-7.58l191.45-494.12c1.9-5.06,10.74-5.06,12.64,0l192.09,494.12
		C2201.78,548.96,2198.62,552.75,2194.2,552.75z"/>
	<path class="st0" d="M2605.53,459.87v87.2c0,2.53-2.53,5.69-6.95,5.69h-82.14c-125.74,0-296.34-36.65-296.34-252.75
		c0-224.31,172.5-252.74,296.34-252.74h82.14c4.42,0,6.95,3.16,6.95,5.69v198.4h-96.67V139.51
		c-109.94-5.69-191.46,40.44-191.46,160.49c0,156.07,130.16,162.39,191.46,159.86H2605.53z"/>
	<path class="st0" d="M2625.11,128.14V52.95c0-2.53,3.16-5.69,6.95-5.69h290.03c4.42,0,6.95,3.16,6.95,5.69v75.19
		c0,3.16-2.53,5.69-6.95,5.69h-290.03C2628.27,133.82,2625.11,131.3,2625.11,128.14z M2825.41,230.5v316.56
		c0,2.53-3.16,5.69-7.58,5.69h-81.51c-4.42,0-6.95-3.16-6.95-5.69V230.5H2825.41z"/>
</g>
</svg>
