<?xml version="1.0" encoding="utf-8"?>
<!-- Generator: Adobe Illustrator 25.0.0, SVG Export Plug-In . SVG Version: 6.00 Build 0)  -->
<svg version="1.1" id="Livello_1" xmlns="http://www.w3.org/2000/svg" xmlns:xlink="http://www.w3.org/1999/xlink" x="0px" y="0px"
	 viewBox="0 0 2935.15 600" style="enable-background:new 0 0 2935.15 600;" xml:space="preserve">
<style type="text/css">
	.st0{fill:#FFFFFF;}
</style>
<g>
	<path class="st0" d="M397.76,301.07c0,220.33-172.46,257.7-300.05,257.7H13.72c-3.85,0-7.05-3.22-7.05-5.8V350.67h98.09v113.39
		c62.19,2.58,194.26-3.86,194.26-162.99c0-122.41-82.71-169.44-194.26-163.64v114.03H6.67V49.17c0-2.58,3.21-5.8,7.05-5.8h83.99
		C222.73,43.37,397.76,72.36,397.76,301.07z"/>
	<path class="st0" d="M827.95,141.94L704.22,316.53v236.44c0,2.58-3.21,5.8-7.05,5.8h-83.99c-4.49,0-7.05-3.22-7.05-5.8V316.53
		c-61.55-88.26-125.02-175.88-187.21-263.5c-3.21-4.51-0.64-9.66,6.41-9.66h101.3c1.92,0,5.13,0.64,6.41,1.93l121.82,172.01
		l53.85-75.38H827.95z"/>
	<path class="st0" d="M1279.95,49.17v503.8c0,2.58-2.56,5.8-7.05,5.8h-84.63c-1.28,0-5.13-0.64-5.77-1.93L946.56,217.32v217.75
		h-98.09V49.17c0-2.58,3.21-5.8,6.41-5.8h85.27c1.28,0,5.13,0.64,5.77,1.93l236.58,339.52V49.17c0-2.58,3.21-5.8,7.69-5.8h82.71
		C1277.39,43.37,1279.95,46.59,1279.95,49.17z"/>
	<path class="st0" d="M1698.6,558.76h-88.47c-1.92,0-5.13-1.29-5.77-3.86l-101.3-287.33L1403.04,554.9
		c-0.64,2.58-3.85,3.86-6.41,3.86h-87.83c-5.77,0-8.33-3.86-6.41-7.73l194.26-503.8c1.92-5.15,10.9-5.15,12.82,0l194.9,503.8
		C1706.3,554.9,1703.09,558.76,1698.6,558.76z"/>
	<path class="st0" d="M2183.94,270.79l-130.79,263.5c-0.64,1.93-3.85,3.87-5.77,3.87h-78.86c-1.92,0-5.77-1.93-6.41-3.87
		L1822.98,263.7v289.27c0,2.58-3.2,5.8-7.05,5.8h-84.63c-4.49,0-6.41-3.22-6.41-5.8V49.17c0-2.58,1.92-5.8,6.41-5.8h85.91
		c1.92,0,5.77,1.93,6.41,3.87l184,377.53l175.03-377.53c1.28-1.93,4.49-3.87,7.05-3.87h84.63c4.49,0,7.05,3.22,7.05,5.8v385.26
		h-97.45V270.79z"/>
	<path class="st0" d="M2525.66,476.3v76.67c0,2.58-2.56,5.8-7.05,5.8h-201.96c-3.85,0-7.05-3.22-7.05-5.8V476.3
		c0-3.22,3.21-5.8,7.05-5.8h52.57V288.18V131.63V43.37h98.09v88.26v156.55V470.5h51.29C2523.09,470.5,2525.66,473.08,2525.66,476.3z
		"/>
	<path class="st0" d="M2927.64,464.06v88.91c0,2.58-2.57,5.8-7.05,5.8h-83.35c-127.59,0-300.69-37.37-300.69-257.7
		c0-228.71,175.03-257.7,300.69-257.7h83.35c4.49,0,7.05,3.22,7.05,5.8v202.29h-98.09V137.43
		c-111.56-5.8-194.26,41.23-194.26,163.64c0,159.13,132.07,165.57,194.26,162.99H2927.64z"/>
</g>
</svg>
