<?xml version="1.0" encoding="utf-8"?>
<!-- Generator: Adobe Illustrator 25.0.0, SVG Export Plug-In . SVG Version: 6.00 Build 0)  -->
<svg version="1.1" id="Livello_1" xmlns="http://www.w3.org/2000/svg" xmlns:xlink="http://www.w3.org/1999/xlink" x="0px" y="0px"
	 viewBox="0 0 1920 1080" style="enable-background:new 0 0 1920 1080;" xml:space="preserve">
<style type="text/css">
	.st0{fill:#FFFFFF;}
</style>
<g>
	<path class="st0" d="M327.14,702.22c0,97.35-77.88,151.22-160.96,151.22c0,0,0,0-0.65,0v-93.46c0.65,0,0.65,0,0.65,0
		c34.4,0,64.9-23.36,64.9-57.76c0-38.29-35.7-61.66-64.9-62.96c-4.54,0-39.59,0-77.23-17.52C35.08,597.08,4.58,551,4.58,490.64
		c0-97.35,78.53-156.41,161.61-156.41c88.92,0,157.71,59.71,159.01,147.98c0.65,1.95-2.6,5.19-7.14,5.19h-81.13
		c-3.89,0-7.14-3.25-7.14-5.19c-1.3-36.99-29.85-54.52-63.6-54.52c-35.7,0-64.9,21.42-64.9,62.95c0,37.64,31.8,57.11,64.9,57.11
		c3.25,0,39.59,0,76.58,17.52C297.29,590.59,327.14,641.21,327.14,702.22z"/>
	<path class="st0" d="M739.26,758.04v89.56c0,2.6-2.6,5.84-7.14,5.84h-84.37c-129.15,0-304.39-37.64-304.39-259.61
		c0-230.4,177.18-259.61,304.39-259.61h84.37c4.54,0,7.14,3.25,7.14,5.84v203.79h-99.3V428.98
		c-112.93-5.84-196.65,41.54-196.65,164.85c0,160.31,133.7,166.8,196.65,164.2H739.26z"/>
	<path class="st0" d="M978.09,770.37v77.23c0,2.6-2.6,5.84-7.14,5.84H766.51c-3.89,0-7.14-3.25-7.14-5.84v-77.23
		c0-3.25,3.25-5.84,7.14-5.84h53.22V580.85V423.14v-88.92h99.3v88.92v157.71v183.67h51.92C975.5,764.53,978.09,767.12,978.09,770.37
		z"/>
	<path class="st0" d="M1305.19,560.73c0,2.6-1.95,5.19-5.84,5.19H1067c-4.54,0-7.14-2.6-7.14-5.19v-70.09c0-2.6,2.6-5.84,7.14-5.84
		h232.35c3.89,0,5.84,3.24,5.84,5.84V560.73z"/>
	<path class="st0" d="M1679.68,551.65v82.42c0,2.6-3.25,5.84-7.14,5.84h-203.79v213.53h-0.65h-64.25h-27.26
		c-3.89,0-7.14-3.25-7.14-5.84V340.07c0-2.6,3.25-5.84,7.14-5.84h239.49v94.11h-147.33v117.47h203.79
		C1676.43,545.81,1679.68,548.4,1679.68,551.65z"/>
	<path class="st0" d="M1913.97,770.37v77.23c0,2.6-2.6,5.84-7.14,5.84h-204.44c-3.89,0-7.14-3.25-7.14-5.84v-77.23
		c0-3.25,3.25-5.84,7.14-5.84h53.22V580.85V423.14v-88.92h99.3v88.92v157.71v183.67h51.92
		C1911.38,764.53,1913.97,767.12,1913.97,770.37z"/>
</g>
</svg>
