<?xml version="1.0" encoding="utf-8"?>
<!-- Generator: Adobe Illustrator 25.0.0, SVG Export Plug-In . SVG Version: 6.00 Build 0)  -->
<svg version="1.1" id="Livello_1" xmlns="http://www.w3.org/2000/svg" xmlns:xlink="http://www.w3.org/1999/xlink" x="0px" y="0px"
	 viewBox="0 0 2950 525" style="enable-background:new 0 0 2950 525;" xml:space="preserve">
<style type="text/css">
	.st0{fill:url(#SVGID_1_);}
</style>
<linearGradient id="SVGID_1_" gradientUnits="userSpaceOnUse" x1="14.6403" y1="264.2233" x2="2937.5706" y2="264.2233">
	<stop  offset="0" style="stop-color:#00FFC3"/>
	<stop  offset="1" style="stop-color:#1AFFFF"/>
</linearGradient>
<path class="st0" d="M405.76,516.97h-87.2c-1.9,0-5.05-1.26-5.69-3.79l-99.83-281.81l-98.57,281.81c-0.63,2.53-3.79,3.79-6.32,3.79
	H21.58c-5.69,0-8.21-3.79-6.32-7.58L206.72,15.27c1.9-5.06,10.74-5.06,12.64,0l192.09,494.12
	C413.34,513.18,410.18,516.97,405.76,516.97z M704.62,264.22c80.25,27.17,77.09,105.52,77.09,105.52
	c0,140.91-144.06,147.22-178.19,147.22h-75.19v-92.24h75.19c31.59,0,81.51-8.85,81.51-57.5c0-59.4-81.51-55.6-81.51-55.6H527.7
	h-96.04V17.17c0-2.53,3.16-5.69,6.95-5.69h164.92c0,0,171.24-3.79,171.24,144.7C774.75,214.94,743.16,248.43,704.62,264.22z
	 M603.52,101.84H527.7v115.63h75.82c0,0,74.56,0,74.56-55.6C678.08,101.2,603.52,101.84,603.52,101.84z M1113.42,369.75
	c0,94.78-75.82,147.22-156.7,147.22c0,0,0,0-0.63,0v-90.99c0.63,0,0.63,0,0.63,0c33.49,0,63.19-22.75,63.19-56.24
	c0-37.28-34.75-60.03-63.19-61.29c-4.42,0-38.54,0-75.19-17.06c-52.44-24.01-82.14-68.87-82.14-127.64
	c0-94.78,76.46-152.28,157.33-152.28c86.57,0,153.54,58.13,154.81,144.06c0.63,1.9-2.53,5.06-6.95,5.06h-78.98
	c-3.79,0-6.95-3.16-6.95-5.06c-1.26-36.02-29.07-53.08-61.92-53.08c-34.75,0-63.19,20.85-63.19,61.29c0,36.65,30.96,55.6,63.19,55.6
	c3.16,0,38.54,0,74.56,17.06C1084.36,261.07,1113.42,310.35,1113.42,369.75z M1129.21,92.36V17.17c0-2.53,3.16-5.69,6.95-5.69
	h290.03c4.42,0,6.95,3.16,6.95,5.69v75.19c0,3.16-2.53,5.69-6.95,5.69h-290.03C1132.37,98.04,1129.21,95.52,1129.21,92.36z
	 M1329.51,194.72v316.56c0,2.53-3.16,5.69-7.58,5.69h-81.51c-4.42,0-6.95-3.16-6.95-5.69V194.72H1329.51z M1787.6,516.97h-90.36
	c-1.9,0-5.69-1.9-6.32-3.79l-92.25-200.3h-54.34v198.4c0,2.53-3.16,5.69-6.95,5.69h-82.77c-3.16,0-6.32-3.16-6.32-5.69V219.99h96.04
	h73.93c20.85,0,74.56-2.53,74.56-58.13s-59.4-58.76-74.56-58.76h-73.93h-96.04V17.17c0-2.53,3.16-5.69,6.32-5.69h163.65
	c28.43,0,170.6,1.26,170.6,150.38c0,77.09-42.33,117.53-92.88,135.85c31.59,71.4,65.71,140.91,97.31,211.04
	C1795.18,513.18,1792.65,516.97,1787.6,516.97z M2202.73,516.97h-87.2c-1.9,0-5.05-1.26-5.69-3.79l-99.83-281.81l-98.57,281.81
	c-0.63,2.53-3.79,3.79-6.32,3.79h-86.57c-5.69,0-8.21-3.79-6.32-7.58l191.45-494.12c1.9-5.06,10.74-5.06,12.64,0l192.09,494.12
	C2210.31,513.18,2207.15,516.97,2202.73,516.97z M2614.06,424.09v87.2c0,2.53-2.53,5.69-6.95,5.69h-82.14
	c-125.74,0-296.34-36.65-296.34-252.75c0-224.31,172.5-252.74,296.34-252.74h82.14c4.42,0,6.95,3.16,6.95,5.69v198.4h-96.67V103.73
	c-109.94-5.69-191.46,40.44-191.46,160.49c0,156.07,130.16,162.39,191.46,159.86h96.67V424.09z M2633.64,92.36V17.17
	c0-2.53,3.16-5.69,6.95-5.69h290.03c4.42,0,6.95,3.16,6.95,5.69v75.19c0,3.16-2.53,5.69-6.95,5.69h-290.03
	C2636.8,98.04,2633.64,95.52,2633.64,92.36z M2833.94,194.72v316.56c0,2.53-3.16,5.69-7.58,5.69h-81.51c-4.42,0-6.95-3.16-6.95-5.69
	V194.72H2833.94z"/>
</svg>
