<?xml version="1.0" encoding="utf-8"?>
<!-- Generator: Adobe Illustrator 25.0.0, SVG Export Plug-In . SVG Version: 6.00 Build 0)  -->
<svg version="1.1" id="Livello_1" xmlns="http://www.w3.org/2000/svg" xmlns:xlink="http://www.w3.org/1999/xlink" x="0px" y="0px"
	 viewBox="0 0 2950 525" style="enable-background:new 0 0 2950 525;" xml:space="preserve">
<style type="text/css">
	.st0{fill:url(#SVGID_1_);}
</style>
<linearGradient id="SVGID_1_" gradientUnits="userSpaceOnUse" x1="14.9856" y1="262.9771" x2="2935.9556" y2="262.9771">
	<stop  offset="0" style="stop-color:#00FFC3"/>
	<stop  offset="1" style="stop-color:#1AFFFF"/>
</linearGradient>
<path class="st0" d="M406.08,262.98c0,220.33-172.46,257.7-300.05,257.7H22.04c-3.85,0-7.05-3.22-7.05-5.8v-202.3h98.09v113.39
	c62.19,2.58,194.26-3.86,194.26-162.99c0-122.41-82.71-169.44-194.26-163.64v114.03H14.99V11.08c0-2.58,3.21-5.8,7.05-5.8h83.99
	C231.05,5.28,406.08,34.27,406.08,262.98z M836.27,103.85L712.54,278.44v236.44c0,2.58-3.21,5.8-7.05,5.8H621.5
	c-4.49,0-7.05-3.22-7.05-5.8V278.44c-61.55-88.26-125.02-175.88-187.21-263.5c-3.21-4.51-0.64-9.66,6.41-9.66h101.3
	c1.92,0,5.13,0.64,6.41,1.93l121.82,172.01l53.85-75.38h119.24V103.85z M1288.27,11.08v503.8c0,2.58-2.56,5.8-7.05,5.8h-84.63
	c-1.28,0-5.13-0.64-5.77-1.93L954.88,179.23v217.75h-98.09V11.08c0-2.58,3.21-5.8,6.41-5.8h85.27c1.28,0,5.13,0.64,5.77,1.93
	l236.58,339.52V11.08c0-2.58,3.21-5.8,7.69-5.8h82.71C1285.71,5.28,1288.27,8.5,1288.27,11.08z M1706.92,520.67h-88.47
	c-1.92,0-5.13-1.29-5.77-3.86l-101.3-287.33l-100.02,287.33c-0.64,2.58-3.85,3.86-6.41,3.86h-87.83c-5.77,0-8.33-3.86-6.41-7.73
	l194.26-503.8c1.92-5.15,10.9-5.15,12.82,0l194.9,503.8C1714.62,516.81,1711.41,520.67,1706.92,520.67z M2192.26,232.7
	l-130.79,263.5c-0.64,1.93-3.85,3.87-5.77,3.87h-78.86c-1.92,0-5.77-1.93-6.41-3.87L1831.3,225.61v289.27c0,2.58-3.2,5.8-7.05,5.8
	h-84.63c-4.49,0-6.41-3.22-6.41-5.8V11.08c0-2.58,1.92-5.8,6.41-5.8h85.91c1.92,0,5.77,1.93,6.41,3.87l184,377.53L2190.97,9.15
	c1.28-1.93,4.49-3.87,7.05-3.87h84.63c4.49,0,7.05,3.22,7.05,5.8v385.26h-97.45V232.7H2192.26z M2533.98,438.21v76.67
	c0,2.58-2.56,5.8-7.05,5.8h-201.96c-3.85,0-7.05-3.22-7.05-5.8v-76.67c0-3.22,3.21-5.8,7.05-5.8h52.57V250.09V93.54V5.28h98.09
	v88.26v156.55v182.32h51.29C2531.41,432.41,2533.98,434.99,2533.98,438.21z M2935.96,425.97v88.91c0,2.58-2.57,5.8-7.05,5.8h-83.35
	c-127.59,0-300.69-37.37-300.69-257.7c0-228.71,175.03-257.7,300.69-257.7h83.35c4.49,0,7.05,3.22,7.05,5.8v202.29h-98.09V99.34
	c-111.56-5.8-194.26,41.23-194.26,163.64c0,159.13,132.07,165.57,194.26,162.99H2935.96z"/>
</svg>
