<?xml version="1.0" encoding="utf-8"?>
<!-- Generator: Adobe Illustrator 25.0.0, SVG Export Plug-In . SVG Version: 6.00 Build 0)  -->
<svg version="1.1" id="Livello_1" xmlns="http://www.w3.org/2000/svg" xmlns:xlink="http://www.w3.org/1999/xlink" x="0px" y="0px"
	 viewBox="0 0 1920 525" style="enable-background:new 0 0 1920 525;" xml:space="preserve">
<style type="text/css">
	.st0{fill:#FFFFFF;}
</style>
<g>
	<path class="st0" d="M327.59,371.2c0,97.35-77.88,151.22-160.96,151.22c0,0,0,0-0.65,0v-93.46c0.65,0,0.65,0,0.65,0
		c34.4,0,64.9-23.36,64.9-57.76c0-38.29-35.7-61.66-64.9-62.96c-4.54,0-39.59,0-77.23-17.52c-53.87-24.66-84.37-70.74-84.37-131.1
		C5.03,62.27,83.56,3.21,166.64,3.21c88.92,0,157.71,59.71,159.01,147.98c0.65,1.95-2.6,5.19-7.14,5.19h-81.13
		c-3.89,0-7.14-3.25-7.14-5.19c-1.3-36.99-29.85-54.52-63.6-54.52c-35.7,0-64.9,21.42-64.9,62.95c0,37.64,31.8,57.11,64.9,57.11
		c3.25,0,39.59,0,76.58,17.52C297.74,259.57,327.59,310.19,327.59,371.2z"/>
	<path class="st0" d="M739.71,427.02v89.56c0,2.6-2.6,5.84-7.14,5.84H648.2c-129.15,0-304.39-37.64-304.39-259.61
		C343.81,32.41,520.99,3.2,648.2,3.2h84.37c4.54,0,7.14,3.25,7.14,5.84v203.79h-99.3V97.96c-112.93-5.84-196.65,41.54-196.65,164.85
		c0,160.31,133.7,166.8,196.65,164.2L739.71,427.02L739.71,427.02z"/>
	<path class="st0" d="M978.54,439.35v77.23c0,2.6-2.6,5.84-7.14,5.84H766.96c-3.89,0-7.14-3.25-7.14-5.84v-77.23
		c0-3.25,3.25-5.84,7.14-5.84h53.22V249.83V92.12V3.2h99.3v88.92v157.71V433.5h51.92C975.95,433.51,978.54,436.1,978.54,439.35z"/>
	<path class="st0" d="M1305.64,229.71c0,2.6-1.95,5.19-5.84,5.19h-232.35c-4.54,0-7.14-2.6-7.14-5.19v-70.09
		c0-2.6,2.6-5.84,7.14-5.84h232.35c3.89,0,5.84,3.24,5.84,5.84V229.71z"/>
	<path class="st0" d="M1680.13,220.63v82.42c0,2.6-3.25,5.84-7.14,5.84H1469.2v213.53h-0.65h-64.25h-27.26
		c-3.89,0-7.14-3.25-7.14-5.84V9.05c0-2.6,3.25-5.84,7.14-5.84h239.49v94.11H1469.2v117.47h203.79
		C1676.88,214.79,1680.13,217.38,1680.13,220.63z"/>
	<path class="st0" d="M1914.42,439.35v77.23c0,2.6-2.6,5.84-7.14,5.84h-204.44c-3.89,0-7.14-3.25-7.14-5.84v-77.23
		c0-3.25,3.25-5.84,7.14-5.84h53.22V249.83V92.12V3.2h99.3v88.92v157.71V433.5h51.92C1911.83,433.51,1914.42,436.1,1914.42,439.35z"
		/>
</g>
</svg>
