<?xml version="1.0" encoding="utf-8"?>
<!-- Generator: Adobe Illustrator 25.0.0, SVG Export Plug-In . SVG Version: 6.00 Build 0)  -->
<svg version="1.1" id="Livello_1" xmlns="http://www.w3.org/2000/svg" xmlns:xlink="http://www.w3.org/1999/xlink" x="0px" y="0px"
	 viewBox="0 0 1920 525" style="enable-background:new 0 0 1920 525;" xml:space="preserve">
<style type="text/css">
	.st0{fill:url(#SVGID_1_);}
</style>
<linearGradient id="SVGID_1_" gradientUnits="userSpaceOnUse" x1="5.03" y1="262.81" x2="1914.42" y2="262.81">
	<stop  offset="0" style="stop-color:#00FFC3"/>
	<stop  offset="1" style="stop-color:#1AFFFF"/>
</linearGradient>
<path class="st0" d="M327.6,371.2c0,97.4-77.9,151.2-161,151.2c0,0,0,0-0.6,0V429c0.6,0,0.6,0,0.6,0c34.4,0,64.9-23.4,64.9-57.8
	c0-38.3-35.7-61.7-64.9-63c-4.5,0-39.6,0-77.2-17.5C35.5,266.1,5,220,5,159.6C5,62.3,83.6,3.2,166.6,3.2c88.9,0,157.7,59.7,159,148
	c0.6,1.9-2.6,5.2-7.1,5.2h-81.1c-3.9,0-7.1-3.2-7.1-5.2c-1.3-37-29.9-54.5-63.6-54.5c-35.7,0-64.9,21.4-64.9,62.9
	c0,37.6,31.8,57.1,64.9,57.1c3.2,0,39.6,0,76.6,17.5C297.7,259.6,327.6,310.2,327.6,371.2z M739.7,427v89.6c0,2.6-2.6,5.8-7.1,5.8
	h-84.4c-129.1,0-304.4-37.6-304.4-259.6C343.8,32.4,521,3.2,648.2,3.2h84.4c4.5,0,7.1,3.2,7.1,5.8v203.8h-99.3V98
	c-112.9-5.8-196.6,41.5-196.6,164.9c0,160.3,133.7,166.8,196.6,164.2L739.7,427L739.7,427z M978.5,439.4v77.2c0,2.6-2.6,5.8-7.1,5.8
	H767c-3.9,0-7.1-3.2-7.1-5.8v-77.2c0-3.2,3.2-5.8,7.1-5.8h53.2V249.8V92.1V3.2h99.3v88.9v157.7v183.7h51.9
	C976,433.5,978.5,436.1,978.5,439.4z M1305.6,229.7c0,2.6-1.9,5.2-5.8,5.2h-232.3c-4.5,0-7.1-2.6-7.1-5.2v-70.1
	c0-2.6,2.6-5.8,7.1-5.8h232.3c3.9,0,5.8,3.2,5.8,5.8V229.7z M1680.1,220.6V303c0,2.6-3.2,5.8-7.1,5.8h-203.8v213.5h-0.7h-64.2H1377
	c-3.9,0-7.1-3.2-7.1-5.8V9.1c0-2.6,3.2-5.8,7.1-5.8h239.5v94.1h-147.3v117.5H1673C1676.9,214.8,1680.1,217.4,1680.1,220.6z
	 M1914.4,439.4v77.2c0,2.6-2.6,5.8-7.1,5.8h-204.4c-3.9,0-7.1-3.2-7.1-5.8v-77.2c0-3.2,3.2-5.8,7.1-5.8h53.2V249.8V92.1V3.2h99.3
	v88.9v157.7v183.7h51.9C1911.8,433.5,1914.4,436.1,1914.4,439.4z"/>
</svg>
